<?xml version="1.0" ?>
<!-- Uploaded to: SVG Repo, www.svgrepo.com, Generator: SVG Repo Mixer Tools -->
<svg width="800px" height="800px" viewBox="0 0 64 64" id="Layer_1_1_" version="1.1" xml:space="preserve" xmlns="http://www.w3.org/2000/svg" xmlns:xlink="http://www.w3.org/1999/xlink">
<g>
<g>
<path d="M49.801,9.601c-1.725-1.294-3.769-2.14-5.896-2.458c0.933-0.998,2.109-1.76,3.412-2.194L50.161,4    l-4.603-1.534c-2.827-0.944-5.842-0.79-8.547,0.422L36.01,2.387C34.195,1.479,32.164,1,30.135,1C22.893,1,17,6.893,17,14.135V24h1    c0-2.209,1.791-4,4-4v-1h0.169c3.815,0,7.559-1.037,10.831-3c0,1.315-0.306,2.612-0.894,3.789L32,20    c3.309-0.662,6.479-1.887,9.372-3.623L42,16v4c2.209,0,4,1.791,4,4h1v-7.947c0-0.534,0.126-1.069,0.365-1.547    c0.269-0.537,0.675-0.997,1.175-1.33l3.19-2.128L49.801,9.601z" style="fill:#00F4CB;"/>
</g>
<g>
<path d="M47.923,39.795L39,37.246v-2.768c1.711-1.415,2.978-3.341,3.589-5.538C45.066,28.645,47,26.555,47,24    c0-2.414-1.721-4.434-4-4.899v-4.867l-2.142,1.285c-2.263,1.358-4.684,2.387-7.22,3.07C33.876,17.748,34,16.874,34,16v-1.766    l-1.515,0.909c-2.878,1.727-6.141,2.701-9.485,2.84V16h-2v3.101c-2.279,0.465-4,2.484-4,4.899c0,2.555,1.934,4.645,4.411,4.94    c0.611,2.197,1.878,4.123,3.589,5.538v2.768l-8.923,2.549C13.088,40.648,11,43.416,11,46.525V63h42V46.525    C53,43.416,50.912,40.648,47.923,39.795z M45,24c0,1.317-0.859,2.427-2.042,2.829C42.979,26.554,43,26.28,43,26v-4.816    C44.161,21.598,45,22.698,45,24z M19,24c0-1.302,0.839-2.402,2-2.816V26c0,0.28,0.021,0.554,0.042,0.829    C19.859,26.427,19,25.317,19,24z M23,26v-6.016c3.049-0.115,6.04-0.863,8.78-2.189c-0.132,0.534-0.323,1.054-0.569,1.546    l-1.02,2.04l2.005-0.401c3.095-0.619,6.052-1.706,8.804-3.234V26c0,4.962-4.038,9-9,9S23,30.962,23,26z M32,37    c1.801,0,3.498-0.444,5-1.214v2.068C36.829,38.373,35.779,41,32,41c-3.768,0-4.82-2.602-5-3.148v-2.066    C28.502,36.556,30.199,37,32,37z M16.626,41.719l8.77-2.507C26.215,40.878,28.223,43,32,43s5.785-2.122,6.603-3.788l8.771,2.507    C49.509,42.328,51,44.305,51,46.525V53h-5v-6h-2v14H20V47h-2v6h-5v-6.475C13,44.305,14.491,42.328,16.626,41.719z M13,55h5v6h-5    V55z M46,61v-6h5v6H46z"/>
<circle cx="27" cy="23" r="1"/>
<circle cx="37" cy="23" r="1"/>
<path d="M32,32c2.206,0,4-1.794,4-4h-2c0,1.103-0.897,2-2,2s-2-0.897-2-2h-2C28,30.206,29.794,32,32,32z"/>
<polygon points="23,54 25,54 25,47 22,47 22,49 23,49   "/>
<polygon points="28,54 30,54 30,47 27,47 27,49 28,49   "/>
</g>
</g>
</svg>